<?xml version="1.0" encoding="UTF-8"?>
<svg xmlns="http://www.w3.org/2000/svg" viewBox="0 0 96 96" width="96px" height="96px">
<g id="surface34310453">
<path style=" stroke:none;fill-rule:nonzero;fill:rgb(9.803922%,46.27451%,82.352942%);fill-opacity:1;" d="M 48 8 C 26 8 8 26 8 48 C 8 70 26 88 48 88 C 70 88 88 70 88 48 C 88 26 70 8 48 8 Z M 48 8 "/>
<path style=" stroke:none;fill-rule:nonzero;fill:rgb(100%,100%,100%);fill-opacity:1;" d="M 50.398438 66.398438 C 32.398438 66.398438 22.199219 54.199219 21.800781 33.601562 L 30.800781 33.601562 C 31 48.601562 37.800781 55 43 56.199219 L 43 33.601562 L 51.398438 33.601562 L 51.398438 46.601562 C 56.601562 46 62 40.199219 63.800781 33.601562 L 72.199219 33.601562 C 70.800781 41.601562 64.800781 47.601562 60.601562 50 C 64.800781 52 71.601562 57.199219 74 66.398438 L 64.601562 66.398438 C 62.601562 60.199219 57.601562 55.398438 51 54.601562 L 51 66.398438 Z M 50.398438 66.398438 "/>
</g>
</svg>
